# Wavefront Obj file
# 
# verts: 8 uv-s: 22
mtllib TestModel[0].mtl

g Box001

v -23.877914 0.073896 43.490417
v 32.218052 0.043523 51.065742
v -26.534910 0.063590 -52.777344
v 33.924911 0.102455 -46.689121
v 0.587075 42.867836 3.318614
v 9.362331 42.852249 2.185928
v 0.095328 42.832081 -51.081387
v 12.018387 42.870808 -50.987576
# 8 positions

vt 0.047310 0.672471
vt 0.561281 0.990000
vt 0.307465 0.327644
vt 0.022222 0.221543
vt 0.634375 0.538376
vt 0.464292 0.245915
vt 0.010000 0.339483
vt 0.252007 0.557324
vt 0.939310 0.990000
vt 0.654995 0.460875
vt 0.590116 0.647793
vt 0.010000 0.990000
vt 0.010000 0.287640
vt 0.323445 0.280372
vt 0.677204 0.221543
vt 0.327613 0.010000
vt 0.962543 0.010000
vt 0.537175 0.641509
vt 0.251557 0.490109
vt 0.010000 0.682903
vt 0.657846 0.767777
vt 0.939310 0.446633
# 22 texture coordinates

vn -0.000005 -1.000000 0.000161
vn -0.003645 -0.999992 0.001684
vn 0.000000 -1.000000 -0.000268
vn 0.005458 -0.999982 -0.002515
vn -0.002169 0.999997 0.001011
vn 0.053046 0.998551 0.009064
vn 0.000175 1.000000 -0.000408
vn -0.043912 0.999014 -0.006561
vn -0.086703 0.712172 0.696630
vn -0.088987 0.726902 0.680951
vn -0.023498 0.736372 0.676169
vn 0.047626 0.673088 0.738028
vn 0.875981 0.481936 0.019894
vn 0.892773 0.450322 0.012925
vn 0.882562 0.468964 0.034028
vn 0.858334 0.511177 0.044284
vn 0.096807 -0.045312 -0.994271
vn 0.096493 -0.026723 -0.994975
vn 0.059764 -0.011471 -0.998147
vn 0.055917 -0.061531 -0.996538
vn -0.851426 0.524063 0.020791
vn -0.859188 0.511028 0.025434
vn -0.859178 0.511501 0.013438
vn -0.847904 0.530112 0.006263
# 24 normals

usemtl 
s 1
f 2/12/1 1/1/2 3/11/3
f 3/11/3 4/2/4 2/12/1
s 2
f 5/14/5 6/3/6 8/13/7
f 8/13/7 7/4/8 5/14/5
s 3
f 1/15/9 2/5/10 6/3/11
f 6/3/11 5/14/12 1/15/9
s 4
f 2/17/13 4/6/14 8/16/15
f 8/13/15 6/3/16 2/18/13
s 5
f 4/20/17 3/7/18 7/19/19
f 7/19/19 8/8/20 4/20/17
s 6
f 3/22/21 1/9/22 5/21/23
f 5/21/23 7/10/24 3/22/21

# 12 faces
